Coordinates
version=1
nRows=18
nColumns=22
inDegrees=yes

Units are S.I. units (second, meters, Newtons, ...)
If the header above contains a line with 'inDegrees', this indicates whether rotational values are in degrees (yes) or radians (no).

endheader
time	pelvis_tilt	pelvis_list	pelvis_rotation	pelvis_tx	pelvis_ty	pelvis_tz	hip_flexion_r	hip_adduction_r	hip_rotation_r	knee_angle_r	ankle_angle_r	subtalar_angle_r	hip_flexion_l	hip_adduction_l	hip_rotation_l	knee_angle_l	ankle_angle_l	subtalar_angle_l	lumbar_extension	lumbar_bending	lumbar_rotation
      2.28000000	     -0.83492069	     -5.92784744	     25.39416624	      0.71175990	      0.96157303	      0.69118899	     24.88825108	     -1.43693262	     -3.94783480	    -51.28559512	      9.52684638	      0.44918744	      7.84526623	      3.84889393	     11.70654592	    -18.20067073	     12.71158414	    -13.91073809	      0.37689085	      3.56852916	     -5.40542602
      2.29000000	     -0.69104568	     -6.01931454	     26.29939816	      0.71755330	      0.96155752	      0.68707315	     25.47866856	     -1.21162392	     -3.60232741	    -49.98826417	      9.71886224	      0.64762948	      7.07503210	      3.73175517	     12.43049171	    -17.76018280	     12.90483821	    -13.75985534	      0.41010417	      3.67151521	     -5.63949881
      2.30000000	     -0.55653845	     -6.10624176	     27.21586040	      0.72330668	      0.96145952	      0.68292569	     26.06499962	     -1.00585675	     -3.28338056	    -48.69413592	      9.81335515	      0.85965242	      6.32848640	      3.60685464	     13.16817434	    -17.33938986	     13.08614694	    -13.60075841	      0.44590265	      3.76720973	     -5.86539135
      2.31000000	     -0.41648426	     -6.18332560	     28.13909586	      0.72903518	      0.96130256	      0.67874253	     26.62606903	     -0.82480629	     -3.01572882	    -47.40086435	      9.80185114	      1.08308231	      5.58116181	      3.47034592	     13.90916267	    -16.92646365	     13.27208425	    -13.42895403	      0.46428402	      3.85872672	     -6.07629448
      2.32000000	     -0.27390513	     -6.24830363	     29.06391382	      0.73473956	      0.96109251	      0.67453936	     27.16328793	     -0.67003298	     -2.80202275	    -46.10807374	      9.65787813	      1.29889091	      4.83339261	      3.32401359	     14.65500219	    -16.51860034	     13.45270866	    -13.25537559	      0.46414702	      3.94050108	     -6.27246202
      2.33000000	     -0.13078051	     -6.30506391	     29.98713641	      0.74041989	      0.96082798	      0.67030460	     27.68417406	     -0.53997596	     -2.65195673	    -44.82241050	      9.35199981	      1.50121795	      4.08640279	      3.16725682	     15.40683395	    -16.11348799	     13.61956225	    -13.09141110	      0.45027569	      4.02012284	     -6.44585254
      2.34000000	      0.02559973	     -6.35394615	     30.90708431	      0.74608757	      0.96052799	      0.66605737	     28.17257865	     -0.42354568	     -2.56812526	    -43.53491459	      8.88459847	      1.71637359	      3.32802682	      2.99139420	     16.16248185	    -15.71069892	     13.79869434	    -12.92494754	      0.40874867	      4.10208951	     -6.59829127
      2.35000000	      0.17714674	     -6.40235014	     31.82169580	      0.75173552	      0.96017379	      0.66179493	     28.64787763	     -0.32096198	     -2.54319841	    -42.24243561	      8.23315968	      1.94430370	      2.58586807	      2.80075300	     16.91459815	    -15.32006549	     13.96426636	    -12.77091730	      0.36564313	      4.18495594	     -6.72905028
      2.36000000	      0.32948613	     -6.45172030	     32.72553557	      0.75736785	      0.95976716	      0.65753607	     29.10177705	     -0.22240189	     -2.56968904	    -40.93818832	      7.42290685	      2.20964013	      1.85665311	      2.59126480	     17.66232689	    -14.94373947	     14.14133035	    -12.62174897	      0.31397757	      4.27109811	     -6.83750305
      2.37000000	      0.47228714	     -6.50611588	     33.61659767	      0.76297954	      0.95929323	      0.65329793	     29.54520303	     -0.12390493	     -2.62979757	    -39.61993976	      6.47998021	      2.51749289	      1.15899214	      2.36650909	     18.39739801	    -14.59179782	     14.31932017	    -12.48066326	      0.26835227	      4.35659032	     -6.92299207
      2.38000000	      0.61378195	     -6.56281447	     34.49360779	      0.76858580	      0.95875953	      0.64908475	     29.96384908	     -0.02057766	     -2.71400584	    -38.28270434	      5.45972779	      2.88392629	      0.48650995	      2.12486224	     19.11849968	    -14.26942286	     14.51912195	    -12.33812619	      0.21900490	      4.44013909	     -6.98914627
      2.39000000	      0.74224811	     -6.62694729	     35.35653215	      0.77418001	      0.95815023	      0.64487863	     30.36733355	      0.08894621	     -2.79828051	    -36.92405261	      4.41267045	      3.28588229	     -0.14315009	      1.87293593	     19.82163967	    -13.98454648	     14.71788241	    -12.19929086	      0.18317298	      4.52316025	     -7.03620337
      2.40000000	      0.87577020	     -6.67967152	     36.20454310	      0.77979706	      0.95748695	      0.64066912	     30.72724686	      0.19942099	     -2.87548612	    -35.54902179	      3.41131435	      3.76891090	     -0.76705039	      1.61361602	     20.49823474	    -13.72254269	     14.97098347	    -12.04104001	      0.13313662	      4.59715081	     -7.07477989
      2.41000000	      0.99190484	     -6.74562740	     37.04556166	      0.78540164	      0.95674130	      0.63646712	     31.06634424	      0.32127322	     -2.91928570	    -34.13894321	      2.51129840	      4.25034846	     -1.33090647	      1.34692025	     21.16806791	    -13.51682748	     15.20177245	    -11.88633616	      0.10295937	      4.67017675	     -7.10471831
      2.42000000	      1.10859147	     -6.79984844	     37.87066291	      0.79102162	      0.95594299	      0.63226590	     31.35542723	      0.44600078	     -2.91848480	    -32.70356916	      1.77871189	      4.81252092	     -1.87899996	      1.08212939	     21.82625687	    -13.34892523	     15.43749313	    -11.69608112	      0.05742263	      4.73100867	     -7.10366265
      2.43000000	      1.20871743	     -6.87220993	     38.71379100	      0.79663367	      0.95504012	      0.62801678	     31.61906824	      0.57002084	     -2.89280634	    -31.23926379	      1.24458417	      5.26879319	     -2.36641972	      0.80817200	     22.47584425	    -13.23319955	     15.70411898	    -11.54735760	      0.04014715	      4.79879136	     -7.15951585
      2.44000000	      1.30740626	     -6.94635276	     39.55824038	      0.80225184	      0.95407458	      0.62374190	     31.84020471	      0.69095980	     -2.84178106	    -29.75549957	      0.91938474	      5.69930035	     -2.82064883	      0.53116577	     23.13985068	    -13.17011846	     15.94325058	    -11.38968016	      0.01913338	      4.86421149	     -7.18180528
      2.45000000	      1.42379126	     -6.96598831	     40.37671457	      0.80792264	      0.95309750	      0.61941336	     31.96452695	      0.79892320	     -2.66428243	    -28.26320167	      0.85610940	      6.37366402	     -3.33004902	      0.27475920	     23.75606396	    -13.09990001	     16.25302131	    -11.10409212	     -0.06137967	      4.90009136	     -7.20845853
